<svg xmlns="http://www.w3.org/2000/svg" width="288px" height="288px" viewBox="0 0 288 288">
    <g fill="#3d3d3d">
      <path d="M264.661,18.277c-4.101-9.13-12.01-16.03-21.989-17.684c-16.274-2.22-31.675,6.111-44.96,14.522
      	c-14.75,9.334-28.291,20.384-41.156,32.154c-25.954,23.747-49.204,50.285-69.434,79.062c-0.349,0.496-0.693,0.997-1.04,1.495
      	c-5.625,0.744-11.271,1.105-16.947,1.054c-1.502-0.013-3.001-0.078-4.5-0.151c-0.921-0.044-2.234-0.403-3.137-0.062
      	c-2.051,0.777-3.458,3.541-4.48,5.312c-1.067,1.848-2.567,4.315-2.323,6.569c0.229,2.109,2.642,1.898,4.175,1.987
      	c5.873,0.341,11.765,0.14,17.618-0.421c-18.55,28.543-34.635,59.006-46.092,91.059c-2.992,8.369-5.799,16.873-8.293,25.405
      	c-2.395,8.196-3.75,16.871-1.317,25.214c0.791,2.711,1.901,5.899,5.063,3.706c3.306-2.292,6.504-4.738,9.645-7.252
      	c6.069-4.856,11.758-10.177,17.143-15.778c26.878-27.959,44.976-62.75,62.91-96.812c34.63-1.351,68.006-15.787,94.465-37.78
      	c12.688-10.543,24.4-22.682,34.393-35.812c10.114-13.295,18.939-28.433,22.645-44.865C269.401,38.761,269.079,28.109,264.661,18.277
      	z M30.415,273.363c-1.802-5.787-1.291-11.452,0.173-17.291c1.532-6.106,3.507-12.138,5.372-18.149
      	c3.713-11.975,8.22-23.656,13.39-35.074c9.732-21.5,21.645-42.066,34.719-61.707c18.603-3.063,36.163-10.379,51.636-21.069
      	c-6.741,11.037-13.015,22.357-19.077,33.78c-3.999,0-7.902-0.168-11.855-0.84c-3.18-0.541-6.361-1.082-9.543-1.625
      	c-2.842-0.484-4.766,3.303-5.877,5.207c-1.292,2.217-3.498,5.441-2.014,8.028c0.603,1.051,3.101,1.076,4.126,1.287
      	c2.163,0.439,4.348,0.762,6.536,1.05c3.752,0.49,7.535,0.701,11.318,0.769C88.675,206.999,67.302,246.924,30.415,273.363z
      	 M147.421,112.233c1.042-1.53,1.992-3.04,3.262-4.207c1.481-1.362,2.914-2.774,4.333-4.2c3.062-3.085,5.955-6.34,8.726-9.687
      	c5.496-6.646,11.396-14.108,14.674-22.139c0.956-2.345-0.693-5.242-3.268-3.422c-3.271,2.315-6.015,6.112-8.688,9.082
      	c-5.882,6.536-11.295,13.494-16.43,20.626c-0.552,0.765-2.638,2.161-3.671,3.017c-1.577,1.305-3.205,2.547-4.849,3.768
      	c-3.36,2.491-6.869,4.779-10.458,6.926c-6.891,4.124-14.215,7.497-21.771,10.203c-4.868,1.741-9.864,3.1-14.919,4.177
      	c18.488-25.381,39.712-48.931,62.96-69.999c12.585-11.405,26.103-21.814,40.799-30.359c11.654-6.773,25.65-13.902,39.545-11.258
      	c13.856,2.637,21.101,16.967,21.287,29.988c0.186,12.736-5.333,25.152-12.194,35.605c-27.089,40.75-74.577,70.72-123.885,73.335
      	C130.301,139.473,138.403,125.469,147.421,112.233z"/>
        <path d="M520.5 78.1z"/>
    </g>
</svg>
