<?xml version="1.0" encoding="utf-8"?>
<!-- Generator: Adobe Illustrator 16.0.0, SVG Export Plug-In . SVG Version: 6.00 Build 0)  -->
<!DOCTYPE svg PUBLIC "-//W3C//DTD SVG 1.1//EN" "http://www.w3.org/Graphics/SVG/1.1/DTD/svg11.dtd">
<svg version="1.1" id="Layer_1" xmlns="http://www.w3.org/2000/svg" xmlns:xlink="http://www.w3.org/1999/xlink" x="0px" y="0px"
	 width="432px" height="288px" viewBox="0 0 432 288" enable-background="new 0 0 432 288" xml:space="preserve">
<path stroke="#000000" stroke-width="6" stroke-miterlimit="10" d="M243.705,23.364c-3.923-8.736-11.49-15.336-21.038-16.919
	c-15.572-2.124-30.306,5.847-43.017,13.895c-14.112,8.931-27.069,19.503-39.375,30.764c-24.834,22.72-47.079,48.109-66.435,75.643
	c-0.333,0.476-0.661,0.954-0.993,1.431c-5.383,0.712-10.784,1.057-16.215,1.009c-1.437-0.012-2.871-0.075-4.306-0.145
	c-0.882-0.043-2.137-0.386-3.001-0.059c-1.962,0.744-3.309,3.388-4.287,5.082c-1.022,1.769-2.456,4.129-2.222,6.285
	c0.219,2.018,2.527,1.816,3.993,1.902c5.62,0.327,11.256,0.133,16.857-0.403c-17.748,27.308-33.139,56.453-44.099,87.121
	c-2.864,8.009-5.549,16.145-7.936,24.308c-2.291,7.841-3.588,16.142-1.259,24.124c0.755,2.593,1.819,5.645,4.845,3.546
	c3.163-2.196,6.223-4.534,9.228-6.938c5.807-4.646,11.25-9.738,16.402-15.098c25.716-26.75,43.031-60.037,60.189-92.628
	c33.133-1.292,65.065-15.105,90.381-36.145c12.138-10.088,23.345-21.703,32.904-34.265c9.678-12.72,18.122-27.203,21.665-42.925
	C248.241,42.963,247.932,32.772,243.705,23.364z M19.586,267.422c-1.723-5.535-1.235-10.957,0.166-16.544
	c1.466-5.842,3.356-11.611,5.14-17.365c3.553-11.456,7.865-22.632,12.811-33.559c9.312-20.568,20.708-40.245,33.218-59.037
	c17.799-2.932,34.599-9.93,49.404-20.159c-6.45,10.56-12.453,21.389-18.252,32.319c-3.826-0.001-7.56-0.16-11.343-0.802
	c-3.043-0.517-6.086-1.037-9.13-1.555c-2.719-0.463-4.561,3.159-5.623,4.98c-1.238,2.12-3.346,5.206-1.927,7.68
	c0.576,1.008,2.967,1.031,3.948,1.232c2.069,0.421,4.159,0.73,6.252,1.006c3.591,0.469,7.209,0.671,10.83,0.734
	C75.327,203.927,54.879,242.125,19.586,267.422z M131.534,113.258c0.997-1.463,1.905-2.909,3.12-4.025
	c1.417-1.303,2.788-2.654,4.145-4.02c2.929-2.951,5.698-6.065,8.347-9.267c5.26-6.357,10.906-13.499,14.041-21.181
	c0.915-2.244-0.663-5.016-3.125-3.274c-3.13,2.215-5.756,5.847-8.311,8.688c-5.628,6.254-10.809,12.911-15.72,19.736
	c-0.527,0.731-2.524,2.068-3.513,2.885c-1.509,1.249-3.066,2.438-4.639,3.605c-3.215,2.384-6.572,4.573-10.007,6.627
	c-6.593,3.945-13.6,7.174-20.83,9.76c-4.657,1.667-9.438,2.966-14.274,3.997c17.689-24.284,37.996-46.815,60.238-66.973
	c12.042-10.912,24.973-20.87,39.036-29.046c11.149-6.482,24.541-13.301,37.834-10.771c13.257,2.523,20.189,16.232,20.367,28.692
	c0.176,12.185-5.102,24.064-11.665,34.065c-25.92,38.987-71.355,67.663-118.53,70.166
	C115.154,139.321,122.905,125.923,131.534,113.258z"/>
<g>
	<path d="M324.893,141.301c0,0,0.189-0.525,0.558-1.549c0.353-1.023,0.957-2.539,1.59-4.519c1.341-3.911,3.167-9.835,4.566-17.212
		c0.131-0.918,0.265-1.862,0.4-2.829c0.061-0.956,0.189-1.94,0.206-2.918c0.075-1.96-0.076-3.959-0.533-5.699
		c-0.481-1.761-1.334-2.974-2.341-3.646c-1.048-0.654-2.688-0.999-4.774-0.927c-4.221,0.163-9.437,1.913-14.639,4.194
		c-5.252,2.296-10.75,5.137-16.345,8.422c-5.601,3.281-11.329,6.975-17.14,10.985c-5.825,4-11.822,8.196-17.819,12.734
		c-6.004,4.534-12.065,9.333-18.047,14.407c-2.975,2.552-5.962,5.137-8.897,7.744c-1.468,1.312-2.893,2.643-4.291,3.979
		c-0.681,0.671-1.389,1.343-2.031,2.009c-0.639,0.635-1.353,1.405-1.825,1.915c-5.53,6.118-10.929,12.396-16.157,18.931
		c-2.609,3.262-5.17,6.576-7.65,9.952c-2.525,3.339-4.982,6.728-7.326,10.176c-4.673,6.885-8.955,14.033-12.172,21.247
		c-1.618,3.597-2.919,7.211-3.809,10.691c-0.865,3.468-1.264,6.809-1.072,9.627c0.12,2.862,0.812,5.103,2.031,7.086
		c1.193,1.99,3.148,3.835,5.793,5.483c5.33,3.307,12.947,5.386,20.752,6.528c0.975,0.159,1.966,0.286,2.965,0.4l1.492,0.18
		l0.373,0.046c0.103,0.009-0.239-0.021,0.002,0.002l0.206,0.017l0.818,0.07l3.267,0.283c1.075,0.085,2.229,0.219,3.143,0.254
		c1.953,0.092,3.831,0.258,5.837,0.31c2.024,0.023,4.038,0.094,6.058,0.083c8.081-0.034,16.144-0.695,24.069-1.775
		c15.841-2.271,31.237-5.655,45.684-9.815c3.623-1.002,7.169-2.117,10.674-3.184c3.5-1.119,6.944-2.223,10.33-3.307
		c6.792-2.168,13.324-4.413,19.584-6.653c6.272-2.198,12.223-4.515,17.945-6.577c5.715-2.099,11.132-4.117,16.217-6.054
		c10.148-3.911,19.093-7.184,26.448-9.909c7.33-2.77,13.217-4.684,17.182-6.083c3.985-1.352,6.111-2.072,6.111-2.072l0.531,1.191
		c0,0.001-8.164,3.611-22.339,10.193c-7.096,3.276-15.717,7.258-25.598,11.824c-9.902,4.528-21.115,9.568-33.49,14.738
		c-6.188,2.587-12.664,5.206-19.431,7.767c-6.757,2.584-13.803,5.106-21.116,7.496c-14.606,4.817-30.335,9.06-46.945,11.764
		c-8.302,1.343-16.827,2.263-25.501,2.522c-2.166,0.067-4.345,0.052-6.526,0.079c-2.181,0.002-4.384-0.123-6.585-0.182
		c-2.2-0.08-4.355-0.313-6.544-0.463c-2.22-0.188-4.407-0.414-6.61-0.736c-4.397-0.609-8.795-1.455-13.12-2.716
		c-4.309-1.277-8.59-2.902-12.519-5.296c-3.917-2.363-7.541-5.49-10.052-9.479c-2.551-3.947-3.916-8.618-4.153-13.251
		c-0.28-4.648,0.441-9.242,1.576-13.649c1.177-4.402,2.787-8.648,4.67-12.739c3.763-8.186,8.47-15.81,13.501-23.073
		c10.117-14.508,21.561-27.622,33.09-39.801c5.978-6.061,12.389-11.243,18.733-16.261c6.367-4.98,12.751-9.64,19.069-14.032
		c12.651-8.749,25.041-16.429,36.991-22.601c5.983-3.068,11.855-5.778,17.656-7.848c5.792-2.024,11.535-3.65,17.204-3.439
		c2.792,0.141,5.654,0.854,7.812,2.637c2.132,1.815,3.205,4.412,3.586,6.819c0.377,2.434,0.299,4.774,0.03,6.958
		c-0.117,1.094-0.344,2.141-0.505,3.175c-0.23,1.016-0.455,2.007-0.679,2.972c-2.069,7.629-4.565,13.285-6.274,17.132
		c-0.833,1.938-1.565,3.354-2.015,4.343c-0.461,0.977-0.7,1.482-0.7,1.482L324.893,141.301z"/>
	<g>
		<path d="M327.785,142.098c3.725-10.33,7.969-21.615,7.36-32.756c-0.767-14.038-15.245-10.398-24.284-6.778
			c-13.913,5.573-26.586,13.988-38.86,22.466c-12.66,8.744-24.872,18.105-36.523,28.156c-11.692,10.085-21.732,21.343-31.34,33.416
			c-9.3,11.685-18.233,23.875-24.944,37.257c-4.84,9.651-11.499,25.877-3.132,35.54c7.781,8.986,21.173,10.952,32.316,12.294
			c0.125,0.016,0.249,0.03,0.373,0.046c0-2,0-4,0-6c-0.017-0.002-0.034-0.003-0.051-0.005c-3.897-0.347-3.755,5.544,0,6
			c36.927,4.489,74.368-5.455,109.238-16.621c35.504-11.369,69.886-25.926,105.186-37.893c-1.13-0.459-2.259-0.919-3.389-1.379
			c0.178,0.397,0.354,0.795,0.531,1.191c0.359-1.368,0.718-2.736,1.076-4.104c-48.979,21.821-96.958,47.192-149.441,59.732
			c-15.303,3.656-30.97,6.048-46.721,6.218c-14.769,0.159-30.602-0.879-44.126-7.301c-34.199-16.238-4.445-59.441,10.286-78.885
			c11.161-14.731,23.655-29.009,37.879-40.844c14.294-11.892,29.694-22.568,45.563-32.241c7.51-4.578,15.231-8.811,23.176-12.586
			c8.3-3.944,17.541-7.739,26.861-7.686c18.526,0.106,2.563,32.766-1.336,41.004c1.368-0.359,2.736-0.717,4.104-1.076
			c-0.394-0.185-0.787-0.37-1.182-0.555c-3.48-1.634-6.528,3.538-3.027,5.181c0.394,0.185,0.787,0.37,1.182,0.555
			c1.375,0.646,3.36,0.495,4.104-1.076c4.55-9.615,9.543-19.904,10.582-30.618c0.478-4.929,0.299-11.16-3.516-14.931
			c-4.378-4.328-10.163-4.851-16.033-4.217c-13.62,1.471-27.003,8.942-38.778,15.479c-13.288,7.377-25.968,15.871-38.249,24.809
			c-11.831,8.61-23.339,17.728-33.329,28.452c-10.289,11.044-19.994,22.624-28.769,34.911c-13.949,19.533-33.55,53.1-11.14,73.765
			c8.041,7.415,19.567,10.403,30.056,12.119c11.371,1.861,23.02,2.08,34.502,1.43c24.982-1.414,49.527-7.952,73.124-15.953
			c40.37-13.689,78.396-33.192,117.256-50.505c1.605-0.716,1.682-2.747,1.076-4.104c-0.178-0.397-0.354-0.795-0.531-1.191
			c-0.518-1.161-2.227-1.773-3.389-1.379c-34.734,11.775-68.563,26.127-103.487,37.349c-34.977,11.238-72.266,21.457-109.34,16.95
			c0,2,0,4,0,6c0.017,0.002,0.034,0.003,0.051,0.005c3.899,0.347,3.752-5.538,0-6c-9.381-1.154-20.308-2.679-27.46-9.443
			c-4.709-4.454-2.988-12.428-1.502-17.86c1.915-7.001,5.426-13.543,9.046-19.789c6.289-10.854,14.022-20.949,21.87-30.706
			c8.023-9.976,16.417-19.479,26.045-27.93c19.466-17.084,40.638-33.096,63.352-45.635c5.599-3.091,11.415-5.874,17.479-7.92
			c2.757-0.93,5.553-1.475,8.465-1.43c3.524,0.054,3.189,4.82,3.169,7.25c-0.082,9.53-4.017,19.362-7.213,28.229
			C320.685,144.152,326.483,145.709,327.785,142.098z"/>
	</g>
</g>
</svg>
